<svg width="508" height="180" viewBox="0 0 508 180" fill="none" xmlns="http://www.w3.org/2000/svg">
<path d="M53.75 112.51V107.218C51.6444 106.997 49.7697 106.415 48.1259 105.473C46.4821 104.513 45.2076 103.164 44.3026 101.428C43.3976 99.6919 42.9635 97.5494 43.0005 95.0005L43.0559 94.862H48.3198C48.3198 96.7459 48.6431 98.2697 49.2895 99.4333C49.9544 100.597 50.8502 101.447 51.9769 101.982C53.1036 102.499 54.3595 102.758 55.7448 102.758C57.3332 102.758 58.6908 102.499 59.8174 101.982C60.9441 101.465 61.803 100.726 62.394 99.7658C63.0035 98.8053 63.3083 97.6602 63.3083 96.3303C63.3083 95.2221 63.0497 94.2248 62.5325 93.3382C62.0338 92.4516 61.2212 91.6482 60.0945 90.9279C58.9863 90.2075 57.5272 89.5426 55.7171 88.9331C53.2421 88.1758 51.1642 87.2615 49.4834 86.1903C47.8027 85.119 46.5375 83.8261 45.6879 82.3116C44.8382 80.7786 44.4134 78.9685 44.4134 76.8814C44.4134 73.8338 45.2907 71.3496 47.0454 69.4287C48.8001 67.5078 51.2104 66.3535 54.2764 65.9656V59.8428H58.6538V65.9933C61.7383 66.4366 64.1302 67.7664 65.8294 69.9828C67.5471 72.1808 68.406 75.136 68.406 78.8484H68.0181H62.9758C62.9758 76.3365 62.394 74.3048 61.2304 72.7533C60.0853 71.2018 58.4784 70.4261 56.4097 70.4261C54.2302 70.4261 52.5956 70.9987 51.5059 72.1438C50.4162 73.2705 49.8713 74.822 49.8713 76.7983C49.8713 77.9804 50.1114 79.0147 50.5917 79.9012C51.0719 80.7693 51.8753 81.5543 53.002 82.2562C54.1287 82.958 55.6709 83.6414 57.6287 84.3063C60.1407 85.119 62.2185 86.061 63.8624 87.1323C65.5062 88.1851 66.7345 89.4502 67.5471 90.9279C68.3598 92.4055 68.7662 94.1878 68.7662 96.2749C68.7662 99.4518 67.815 101.982 65.9125 103.866C64.0101 105.75 61.3966 106.867 58.072 107.218V112.51H53.75Z" fill="white"/>
<line x1="40.7819" y1="38.2251" x2="77.1309" y2="38.2251" stroke="white" stroke-width="6"/>
<line x1="93.9756" y1="64.822" x2="166.23" y2="64.822" stroke="white" stroke-width="6"/>
<line x1="123.675" y1="91.8621" x2="195.93" y2="91.8621" stroke="white" stroke-width="6"/>
<line x1="43.8848" y1="147.716" x2="149.386" y2="147.716" stroke="white" stroke-width="6"/>
<line x1="241.248" y1="149.807" x2="242.134" y2="27.9048" stroke="white" stroke-width="6"/>
<line x1="93.9756" y1="78.5637" x2="148.056" y2="78.5637" stroke="white" stroke-width="6"/>
<line x1="170.663" y1="64.822" x2="195.93" y2="64.822" stroke="white" stroke-width="6"/>
<line x1="93.9756" y1="91.8621" x2="119.243" y2="91.8621" stroke="white" stroke-width="6"/>
<line x1="152.045" y1="78.5637" x2="195.93" y2="78.5606" stroke="white" stroke-width="6"/>
<line x1="182.632" y1="38.2251" x2="195.93" y2="38.2251" stroke="white" stroke-width="6"/>
<line x1="164.014" y1="38.2251" x2="177.312" y2="38.2251" stroke="white" stroke-width="6"/>
<line x1="145.396" y1="38.2251" x2="158.695" y2="38.2251" stroke="white" stroke-width="6"/>
<path fill-rule="evenodd" clip-rule="evenodd" d="M38.1222 30.5864H197.703C201.131 30.5864 203.909 33.3649 203.909 36.7924V97.0785H206.569V125.477C206.569 125.468 206.569 125.458 206.569 125.449V36.7924C206.569 31.896 202.6 27.9268 197.703 27.9268H38.1222C33.2259 27.9268 29.2566 31.896 29.2566 36.7924V125.449C29.2566 130.345 33.2259 134.314 38.1222 134.314H197.703C197.719 134.314 197.735 134.314 197.75 134.314H156.035V131.655H38.1222C34.6948 131.655 31.9163 128.876 31.9163 125.449V36.7924C31.9163 33.3649 34.6948 30.5864 38.1222 30.5864Z" fill="white"/>
<path d="M200.492 108.151L196.257 103.668C195.483 102.849 194.453 102.398 193.358 102.398C192.263 102.398 191.234 102.849 190.46 103.668L160.097 135.801C160.097 135.801 160.096 135.802 160.096 135.804C159.992 135.914 159.913 136.049 159.869 136.203L156.074 149.474C155.977 149.814 156.064 150.183 156.301 150.434C156.474 150.617 156.707 150.716 156.945 150.716C157.032 150.716 157.121 150.702 157.208 150.674L169.749 146.658C169.895 146.611 170.023 146.527 170.127 146.417C170.128 146.417 170.129 146.417 170.129 146.417L200.492 114.285C201.267 113.466 201.693 112.376 201.693 111.218C201.693 110.059 201.267 108.97 200.492 108.151ZM158.307 148.311L159.254 145.001L161.435 147.309L158.307 148.311ZM163.41 146.677L159.851 142.911L161.171 138.298L167.769 145.281L163.41 146.677ZM169.486 144.375L162.026 136.481L184.75 112.434L192.21 120.328L169.486 144.375ZM193.496 118.967L186.036 111.072L187.803 109.203L195.263 117.097L193.496 118.967ZM199.206 112.924L196.549 115.736L189.089 107.842L191.746 105.03C192.177 104.574 192.749 104.323 193.358 104.323C193.967 104.323 194.54 104.574 194.97 105.03L199.206 109.512C199.637 109.968 199.874 110.573 199.874 111.218C199.874 111.862 199.637 112.468 199.206 112.924Z" fill="white"/>
<path d="M287.489 107.956C284.632 107.956 282.175 107.252 280.119 105.846C278.084 104.417 276.526 102.436 275.444 99.9041C274.361 97.3717 273.82 94.4172 273.82 91.0406V90.3588C273.82 86.5927 274.361 83.2919 275.444 80.4564C276.526 77.621 278.095 75.424 280.151 73.8656C282.208 72.2856 284.675 71.4956 287.554 71.4956C289.632 71.4956 291.461 71.8852 293.041 72.6644C294.642 73.4219 296.006 74.5258 297.132 75.976V61.6581L291.839 60.749V56.6257H297.132H303.527V102.274L308.82 103.183V107.274H297.976L297.456 103.086C296.309 104.688 294.902 105.9 293.236 106.722C291.591 107.545 289.675 107.956 287.489 107.956ZM289.112 102.761C291.017 102.761 292.619 102.328 293.917 101.462C295.216 100.597 296.287 99.3738 297.132 97.7937V81.4954C296.309 80.0235 295.238 78.8547 293.917 77.9889C292.597 77.1231 291.017 76.6903 289.177 76.6903C287.143 76.6903 285.465 77.2747 284.145 78.4435C282.824 79.5906 281.84 81.1923 281.19 83.2486C280.541 85.2832 280.216 87.6532 280.216 90.3588V91.0406C280.216 94.5687 280.941 97.4041 282.392 99.5469C283.842 101.69 286.082 102.761 289.112 102.761Z" fill="white"/>
<path d="M324.598 107.956C320.941 107.956 318.159 107.068 316.255 105.294C314.35 103.497 313.397 100.975 313.397 97.7288C313.397 95.4994 314.003 93.5622 315.216 91.9172C316.449 90.2506 318.224 88.9627 320.54 88.0537C322.856 87.1229 325.627 86.6576 328.852 86.6576H335.118V83.2161C335.118 81.0949 334.468 79.4499 333.17 78.2811C331.893 77.1123 330.085 76.5279 327.748 76.5279C326.276 76.5279 324.999 76.7119 323.917 77.0799C322.834 77.4262 321.85 77.9132 320.962 78.5409L320.28 83.4434H315.345V75.3916C316.925 74.1146 318.765 73.1514 320.865 72.502C322.964 71.831 325.291 71.4956 327.845 71.4956C332.109 71.4956 335.453 72.5129 337.877 74.5474C340.302 76.582 341.514 79.4932 341.514 83.281V100.196C341.514 100.651 341.514 101.095 341.514 101.527C341.535 101.96 341.568 102.393 341.611 102.826L345.02 103.183V107.274H335.832C335.637 106.322 335.486 105.467 335.377 104.709C335.269 103.952 335.194 103.194 335.15 102.436C333.916 104.017 332.369 105.337 330.507 106.397C328.668 107.436 326.698 107.956 324.598 107.956ZM325.54 102.599C327.661 102.599 329.598 102.09 331.352 101.073C333.105 100.056 334.36 98.8327 335.118 97.4041V91.0406H328.624C325.681 91.0406 323.473 91.7441 322.001 93.151C320.529 94.5579 319.793 96.1271 319.793 97.8587C319.793 99.3954 320.27 100.575 321.222 101.398C322.174 102.198 323.614 102.599 325.54 102.599Z" fill="white"/>
<path d="M365.409 121.462C363.721 121.462 361.892 121.224 359.922 120.748C357.953 120.293 356.221 119.666 354.728 118.865L356.384 113.897C357.574 114.525 358.981 115.044 360.604 115.456C362.228 115.867 363.808 116.073 365.344 116.073C368.201 116.073 370.29 115.272 371.611 113.67C372.952 112.068 373.623 109.785 373.623 106.82V103.475C372.476 104.947 371.102 106.062 369.5 106.82C367.898 107.577 366.059 107.956 363.981 107.956C361.124 107.956 358.656 107.252 356.578 105.846C354.5 104.417 352.899 102.436 351.773 99.9041C350.669 97.35 350.117 94.3955 350.117 91.0406V90.3588C350.117 86.5927 350.669 83.2919 351.773 80.4564C352.899 77.621 354.5 75.424 356.578 73.8656C358.656 72.2856 361.145 71.4956 364.046 71.4956C366.253 71.4956 368.191 71.9284 369.857 72.7942C371.524 73.66 372.92 74.9154 374.046 76.5604L374.63 72.1449H380.019V106.82C380.019 109.85 379.446 112.458 378.299 114.644C377.173 116.83 375.517 118.508 373.331 119.676C371.167 120.867 368.526 121.462 365.409 121.462ZM365.572 102.761C367.498 102.761 369.111 102.328 370.409 101.462C371.708 100.575 372.779 99.3305 373.623 97.7288V81.5603C372.801 80.0668 371.73 78.8872 370.409 78.0214C369.089 77.134 367.498 76.6903 365.637 76.6903C363.602 76.6903 361.903 77.2747 360.539 78.4435C359.197 79.6123 358.191 81.2248 357.52 83.281C356.849 85.3156 356.513 87.6749 356.513 90.3588V91.0406C356.513 94.5687 357.26 97.4041 358.754 99.5469C360.247 101.69 362.52 102.761 365.572 102.761ZM379.045 77.3721L376.545 72.1449H384.37V76.2357L379.045 77.3721Z" fill="white"/>
<path d="M406.253 107.956C403.958 107.956 401.967 107.523 400.279 106.657C398.59 105.77 397.184 104.471 396.058 102.761L395.474 107.274H389.954V61.6581L384.662 60.749V56.6257H396.35V76.3007C397.454 74.7422 398.818 73.5518 400.441 72.7293C402.086 71.9068 404.002 71.4956 406.188 71.4956C409.088 71.4956 411.556 72.2856 413.59 73.8656C415.646 75.424 417.216 77.621 418.298 80.4564C419.402 83.2919 419.954 86.5927 419.954 90.3588V91.0406C419.954 94.4172 419.402 97.3717 418.298 99.9041C417.216 102.436 415.646 104.417 413.59 105.846C411.556 107.252 409.11 107.956 406.253 107.956ZM404.629 102.761C407.638 102.761 409.867 101.69 411.318 99.5469C412.789 97.4041 413.525 94.5687 413.525 91.0406V90.3588C413.525 87.6532 413.201 85.2832 412.551 83.2486C411.902 81.1923 410.917 79.5906 409.597 78.4435C408.276 77.2747 406.599 76.6903 404.564 76.6903C402.595 76.6903 400.928 77.1664 399.564 78.1188C398.223 79.0712 397.151 80.3482 396.35 81.9499V97.4691C397.151 99.0924 398.233 100.38 399.597 101.333C400.982 102.285 402.66 102.761 404.629 102.761Z" fill="white"/>
<path d="M424.564 107.274V103.183L429.856 102.274V77.1773L424.564 76.2682V72.1449H436.252V102.274L441.544 103.183V107.274H424.564ZM429.531 63.4762V56.6257H436.252V63.4762H429.531Z" fill="white"/>
<path d="M461.966 107.956C458.719 107.956 455.895 107.22 453.492 105.748C451.089 104.255 449.228 102.188 447.908 99.5469C446.609 96.9063 445.96 93.8544 445.96 90.3913V88.9627C445.96 85.6295 446.641 82.6533 448.005 80.0343C449.39 77.3937 451.219 75.3158 453.492 73.8007C455.786 72.2639 458.286 71.4956 460.992 71.4956C464.152 71.4956 466.793 72.1449 468.914 73.4436C471.057 74.7422 472.669 76.5712 473.751 78.9305C474.834 81.2681 475.375 84.0278 475.375 87.2095V91.2029H452.583L452.486 91.3653C452.529 93.6163 452.918 95.6184 453.654 97.3717C454.412 99.1032 455.494 100.467 456.901 101.462C458.308 102.458 459.996 102.956 461.966 102.956C464.13 102.956 466.024 102.653 467.648 102.047C469.293 101.419 470.71 100.564 471.901 99.482L474.401 103.638C473.145 104.85 471.479 105.878 469.401 106.722C467.344 107.545 464.866 107.956 461.966 107.956ZM452.778 86.203H468.979V85.3589C468.979 83.6706 468.676 82.1663 468.07 80.846C467.485 79.5041 466.598 78.4543 465.407 77.6967C464.239 76.9175 462.767 76.5279 460.992 76.5279C459.563 76.5279 458.265 76.95 457.096 77.7941C455.927 78.6166 454.964 79.7421 454.206 81.1707C453.449 82.5992 452.951 84.2226 452.713 86.0407L452.778 86.203Z" fill="white"/>
<path d="M287.489 107.956C284.632 107.956 282.175 107.252 280.119 105.846C278.084 104.417 276.526 102.436 275.444 99.9041C274.361 97.3717 273.82 94.4172 273.82 91.0406V90.3588C273.82 86.5927 274.361 83.2919 275.444 80.4564C276.526 77.621 278.095 75.424 280.151 73.8656C282.208 72.2856 284.675 71.4956 287.554 71.4956C289.632 71.4956 291.461 71.8852 293.041 72.6644C294.642 73.4219 296.006 74.5258 297.132 75.976V61.6581L291.839 60.749V56.6257H297.132H303.527V102.274L308.82 103.183V107.274H297.976L297.456 103.086C296.309 104.688 294.902 105.9 293.236 106.722C291.591 107.545 289.675 107.956 287.489 107.956ZM289.112 102.761C291.017 102.761 292.619 102.328 293.917 101.462C295.216 100.597 296.287 99.3738 297.132 97.7937V81.4954C296.309 80.0235 295.238 78.8547 293.917 77.9889C292.597 77.1231 291.017 76.6903 289.177 76.6903C287.143 76.6903 285.465 77.2747 284.145 78.4435C282.824 79.5906 281.84 81.1923 281.19 83.2486C280.541 85.2832 280.216 87.6532 280.216 90.3588V91.0406C280.216 94.5687 280.941 97.4041 282.392 99.5469C283.842 101.69 286.082 102.761 289.112 102.761Z" fill="white"/>
<path d="M324.598 107.956C320.941 107.956 318.159 107.068 316.255 105.294C314.35 103.497 313.397 100.975 313.397 97.7288C313.397 95.4994 314.003 93.5622 315.216 91.9172C316.449 90.2506 318.224 88.9627 320.54 88.0537C322.856 87.1229 325.627 86.6576 328.852 86.6576H335.118V83.2161C335.118 81.0949 334.468 79.4499 333.17 78.2811C331.893 77.1123 330.085 76.5279 327.748 76.5279C326.276 76.5279 324.999 76.7119 323.917 77.0799C322.834 77.4262 321.85 77.9132 320.962 78.5409L320.28 83.4434H315.345V75.3916C316.925 74.1146 318.765 73.1514 320.865 72.502C322.964 71.831 325.291 71.4956 327.845 71.4956C332.109 71.4956 335.453 72.5129 337.877 74.5474C340.302 76.582 341.514 79.4932 341.514 83.281V100.196C341.514 100.651 341.514 101.095 341.514 101.527C341.535 101.96 341.568 102.393 341.611 102.826L345.02 103.183V107.274H335.832C335.637 106.322 335.486 105.467 335.377 104.709C335.269 103.952 335.194 103.194 335.15 102.436C333.916 104.017 332.369 105.337 330.507 106.397C328.668 107.436 326.698 107.956 324.598 107.956ZM325.54 102.599C327.661 102.599 329.598 102.09 331.352 101.073C333.105 100.056 334.36 98.8327 335.118 97.4041V91.0406H328.624C325.681 91.0406 323.473 91.7441 322.001 93.151C320.529 94.5579 319.793 96.1271 319.793 97.8587C319.793 99.3954 320.27 100.575 321.222 101.398C322.174 102.198 323.614 102.599 325.54 102.599Z" fill="white"/>
<path d="M365.409 121.462C363.721 121.462 361.892 121.224 359.922 120.748C357.953 120.293 356.221 119.666 354.728 118.865L356.384 113.897C357.574 114.525 358.981 115.044 360.604 115.456C362.228 115.867 363.808 116.073 365.344 116.073C368.201 116.073 370.29 115.272 371.611 113.67C372.952 112.068 373.623 109.785 373.623 106.82V103.475C372.476 104.947 371.102 106.062 369.5 106.82C367.898 107.577 366.059 107.956 363.981 107.956C361.124 107.956 358.656 107.252 356.578 105.846C354.5 104.417 352.899 102.436 351.773 99.9041C350.669 97.35 350.117 94.3955 350.117 91.0406V90.3588C350.117 86.5927 350.669 83.2919 351.773 80.4564C352.899 77.621 354.5 75.424 356.578 73.8656C358.656 72.2856 361.145 71.4956 364.046 71.4956C366.253 71.4956 368.191 71.9284 369.857 72.7942C371.524 73.66 372.92 74.9154 374.046 76.5604L374.63 72.1449H380.019V106.82C380.019 109.85 379.446 112.458 378.299 114.644C377.173 116.83 375.517 118.508 373.331 119.676C371.167 120.867 368.526 121.462 365.409 121.462ZM365.572 102.761C367.498 102.761 369.111 102.328 370.409 101.462C371.708 100.575 372.779 99.3305 373.623 97.7288V81.5603C372.801 80.0668 371.73 78.8872 370.409 78.0214C369.089 77.134 367.498 76.6903 365.637 76.6903C363.602 76.6903 361.903 77.2747 360.539 78.4435C359.197 79.6123 358.191 81.2248 357.52 83.281C356.849 85.3156 356.513 87.6749 356.513 90.3588V91.0406C356.513 94.5687 357.26 97.4041 358.754 99.5469C360.247 101.69 362.52 102.761 365.572 102.761ZM379.045 77.3721L376.545 72.1449H384.37V76.2357L379.045 77.3721Z" fill="white"/>
<path d="M406.253 107.956C403.958 107.956 401.967 107.523 400.279 106.657C398.59 105.77 397.184 104.471 396.058 102.761L395.474 107.274H389.954V61.6581L384.662 60.749V56.6257H396.35V76.3007C397.454 74.7422 398.818 73.5518 400.441 72.7293C402.086 71.9068 404.002 71.4956 406.188 71.4956C409.088 71.4956 411.556 72.2856 413.59 73.8656C415.646 75.424 417.216 77.621 418.298 80.4564C419.402 83.2919 419.954 86.5927 419.954 90.3588V91.0406C419.954 94.4172 419.402 97.3717 418.298 99.9041C417.216 102.436 415.646 104.417 413.59 105.846C411.556 107.252 409.11 107.956 406.253 107.956ZM404.629 102.761C407.638 102.761 409.867 101.69 411.318 99.5469C412.789 97.4041 413.525 94.5687 413.525 91.0406V90.3588C413.525 87.6532 413.201 85.2832 412.551 83.2486C411.902 81.1923 410.917 79.5906 409.597 78.4435C408.276 77.2747 406.599 76.6903 404.564 76.6903C402.595 76.6903 400.928 77.1664 399.564 78.1188C398.223 79.0712 397.151 80.3482 396.35 81.9499V97.4691C397.151 99.0924 398.233 100.38 399.597 101.333C400.982 102.285 402.66 102.761 404.629 102.761Z" fill="white"/>
<path d="M424.564 107.274V103.183L429.856 102.274V77.1773L424.564 76.2682V72.1449H436.252V102.274L441.544 103.183V107.274H424.564ZM429.531 63.4762V56.6257H436.252V63.4762H429.531Z" fill="white"/>
<path d="M461.966 107.956C458.719 107.956 455.895 107.22 453.492 105.748C451.089 104.255 449.228 102.188 447.908 99.5469C446.609 96.9063 445.96 93.8544 445.96 90.3913V88.9627C445.96 85.6295 446.641 82.6533 448.005 80.0343C449.39 77.3937 451.219 75.3158 453.492 73.8007C455.786 72.2639 458.286 71.4956 460.992 71.4956C464.152 71.4956 466.793 72.1449 468.914 73.4436C471.057 74.7422 472.669 76.5712 473.751 78.9305C474.834 81.2681 475.375 84.0278 475.375 87.2095V91.2029H452.583L452.486 91.3653C452.529 93.6163 452.918 95.6184 453.654 97.3717C454.412 99.1032 455.494 100.467 456.901 101.462C458.308 102.458 459.996 102.956 461.966 102.956C464.13 102.956 466.024 102.653 467.648 102.047C469.293 101.419 470.71 100.564 471.901 99.482L474.401 103.638C473.145 104.85 471.479 105.878 469.401 106.722C467.344 107.545 464.866 107.956 461.966 107.956ZM452.778 86.203H468.979V85.3589C468.979 83.6706 468.676 82.1663 468.07 80.846C467.485 79.5041 466.598 78.4543 465.407 77.6967C464.239 76.9175 462.767 76.5279 460.992 76.5279C459.563 76.5279 458.265 76.95 457.096 77.7941C455.927 78.6166 454.964 79.7421 454.206 81.1707C453.449 82.5992 452.951 84.2226 452.713 86.0407L452.778 86.203Z" fill="white"/>
</svg>
